<mxfile host="65bd71144e">
    <diagram id="h4m4UnNYNFbSY9ijyBTQ" name="Page-1">
        <mxGraphModel dx="490" dy="388" grid="1" gridSize="10" guides="1" tooltips="1" connect="1" arrows="1" fold="1" page="1" pageScale="1" pageWidth="850" pageHeight="1100" math="0" shadow="0">
            <root>
                <mxCell id="0"/>
                <mxCell id="1" parent="0"/>
                <mxCell id="2" value="" style="whiteSpace=wrap;html=1;" vertex="1" parent="1">
                    <mxGeometry x="40" y="150" width="160" height="300" as="geometry"/>
                </mxCell>
                <mxCell id="4" value="" style="whiteSpace=wrap;html=1;fillColor=#dae8fc;strokeColor=#6c8ebf;" vertex="1" parent="1">
                    <mxGeometry x="70" y="220" width="100" height="200" as="geometry"/>
                </mxCell>
                <mxCell id="5" value="&lt;p style=&quot;line-height: 120%; font-size: 13px;&quot;&gt;&lt;font style=&quot;font-size: 13px;&quot; color=&quot;#ff00ff&quot;&gt;&lt;b&gt;Call Stack&lt;/b&gt;&lt;/font&gt;&lt;/p&gt;" style="text;align=center;html=1;verticalAlign=middle;whiteSpace=wrap;rounded=0;" vertex="1" parent="1">
                    <mxGeometry x="70" y="220" width="110" height="30" as="geometry"/>
                </mxCell>
                <mxCell id="6" value="&lt;font color=&quot;#ffff00&quot;&gt;JS Engine&lt;/font&gt;" style="text;strokeColor=none;align=center;fillColor=none;html=1;verticalAlign=middle;whiteSpace=wrap;rounded=0;fontSize=13;fontColor=#FF00FF;" vertex="1" parent="1">
                    <mxGeometry x="65" y="160" width="110" height="30" as="geometry"/>
                </mxCell>
                <mxCell id="8" value="&lt;font style=&quot;font-size: 20px;&quot;&gt;Browser&lt;/font&gt;" style="text;strokeColor=none;align=center;fillColor=none;html=1;verticalAlign=middle;whiteSpace=wrap;rounded=0;glass=1;fontSize=13;fontColor=#FFFF00;" vertex="1" parent="1">
                    <mxGeometry x="710" y="50" width="120" height="70" as="geometry"/>
                </mxCell>
                <mxCell id="9" value="" style="whiteSpace=wrap;html=1;rounded=1;glass=1;strokeColor=#FFFF00;fontSize=20;fontColor=#FFFF00;fillColor=none;" vertex="1" parent="1">
                    <mxGeometry x="455" y="100" width="340" height="450" as="geometry"/>
                </mxCell>
                <mxCell id="11" value="Window" style="text;strokeColor=none;align=center;fillColor=none;html=1;verticalAlign=middle;whiteSpace=wrap;rounded=0;glass=1;fontSize=20;fontColor=#FFFF00;" vertex="1" parent="1">
                    <mxGeometry x="420" y="145" width="60" height="30" as="geometry"/>
                </mxCell>
                <mxCell id="14" value="" style="whiteSpace=wrap;html=1;rounded=1;glass=1;strokeColor=#FFFF00;fontSize=20;fontColor=#FFFF00;fillColor=none;arcSize=24;" vertex="1" parent="1">
                    <mxGeometry x="390" y="130" width="120" height="60" as="geometry"/>
                </mxCell>
                <mxCell id="15" value="&lt;font color=&quot;#00ffff&quot;&gt;&lt;b&gt;Web APIS&lt;/b&gt;&lt;/font&gt;" style="text;strokeColor=none;align=center;fillColor=none;html=1;verticalAlign=middle;whiteSpace=wrap;rounded=0;glass=1;fillStyle=solid;fontSize=20;fontColor=#FFFF00;" vertex="1" parent="1">
                    <mxGeometry x="540" y="130" width="170" height="30" as="geometry"/>
                </mxCell>
                <mxCell id="16" value="&amp;nbsp;" style="text;strokeColor=none;align=left;fillColor=none;html=1;verticalAlign=middle;whiteSpace=wrap;rounded=0;glass=1;fillStyle=solid;fontSize=20;fontColor=#00FFFF;" vertex="1" parent="1">
                    <mxGeometry x="190" y="320" width="170" height="30" as="geometry"/>
                </mxCell>
                <mxCell id="18" value="&lt;font color=&quot;#33ffff&quot;&gt;&amp;nbsp;setTimeout&lt;/font&gt;" style="text;strokeColor=none;align=center;fillColor=none;html=1;verticalAlign=middle;whiteSpace=wrap;rounded=0;glass=1;labelBackgroundColor=none;fillStyle=solid;fontSize=20;fontColor=#000000;" vertex="1" parent="1">
                    <mxGeometry x="510" y="200" width="210" height="60" as="geometry"/>
                </mxCell>
                <mxCell id="21" value="DOM APis" style="text;strokeColor=none;align=center;fillColor=none;html=1;verticalAlign=middle;whiteSpace=wrap;rounded=0;glass=1;labelBackgroundColor=none;fillStyle=solid;fontSize=20;fontColor=#33FFFF;" vertex="1" parent="1">
                    <mxGeometry x="470" y="250" width="290" height="30" as="geometry"/>
                </mxCell>
                <mxCell id="22" value="fetch()" style="text;strokeColor=none;align=center;fillColor=none;html=1;verticalAlign=middle;whiteSpace=wrap;rounded=0;glass=1;labelBackgroundColor=none;fillStyle=solid;fontSize=20;fontColor=#33FFFF;" vertex="1" parent="1">
                    <mxGeometry x="550" y="300" width="100" height="30" as="geometry"/>
                </mxCell>
                <mxCell id="23" value="local Storage" style="text;strokeColor=none;align=center;fillColor=none;html=1;verticalAlign=middle;whiteSpace=wrap;rounded=0;glass=1;labelBackgroundColor=none;fillStyle=solid;fontSize=20;fontColor=#33FFFF;" vertex="1" parent="1">
                    <mxGeometry x="490" y="340" width="280" height="30" as="geometry"/>
                </mxCell>
                <mxCell id="24" value="console" style="text;strokeColor=none;align=center;fillColor=none;html=1;verticalAlign=middle;whiteSpace=wrap;rounded=0;glass=1;labelBackgroundColor=none;fillStyle=solid;fontSize=20;fontColor=#33FFFF;" vertex="1" parent="1">
                    <mxGeometry x="570" y="390" width="80" height="30" as="geometry"/>
                </mxCell>
                <mxCell id="25" value="location" style="text;strokeColor=none;align=center;fillColor=none;html=1;verticalAlign=middle;whiteSpace=wrap;rounded=0;glass=1;labelBackgroundColor=none;fillStyle=solid;fontSize=20;fontColor=#33FFFF;" vertex="1" parent="1">
                    <mxGeometry x="540" y="450" width="140" height="30" as="geometry"/>
                </mxCell>
                <mxCell id="28" value="" style="edgeStyle=none;orthogonalLoop=1;jettySize=auto;html=1;fontSize=20;fontColor=#33FFFF;curved=1;exitX=1.01;exitY=0.543;exitDx=0;exitDy=0;exitPerimeter=0;entryX=0;entryY=1;entryDx=0;entryDy=0;" edge="1" parent="1" source="2" target="14">
                    <mxGeometry width="80" relative="1" as="geometry">
                        <mxPoint x="410" y="390" as="sourcePoint"/>
                        <mxPoint x="490" y="390" as="targetPoint"/>
                        <Array as="points">
                            <mxPoint x="330" y="320"/>
                            <mxPoint x="280" y="210"/>
                        </Array>
                    </mxGeometry>
                </mxCell>
                <mxCell id="46" style="edgeStyle=orthogonalEdgeStyle;curved=1;html=1;exitX=0.717;exitY=1.056;exitDx=0;exitDy=0;fontSize=20;fontColor=#33FFFF;exitPerimeter=0;entryX=0.25;entryY=0;entryDx=0;entryDy=0;" edge="1" parent="1" source="14" target="25">
                    <mxGeometry relative="1" as="geometry">
                        <mxPoint x="500" y="390" as="sourcePoint"/>
                        <mxPoint x="605.0344827586207" y="465" as="targetPoint"/>
                        <Array as="points">
                            <mxPoint x="470" y="193"/>
                            <mxPoint x="470" y="450"/>
                        </Array>
                    </mxGeometry>
                </mxCell>
                <mxCell id="50" value="" style="edgeStyle=none;orthogonalLoop=1;jettySize=auto;html=1;fontSize=20;fontColor=#33FFFF;" edge="1" parent="1">
                    <mxGeometry width="80" relative="1" as="geometry">
                        <mxPoint x="470" y="320" as="sourcePoint"/>
                        <mxPoint x="550" y="320" as="targetPoint"/>
                        <Array as="points">
                            <mxPoint x="480" y="320"/>
                        </Array>
                    </mxGeometry>
                </mxCell>
                <mxCell id="51" value="" style="edgeStyle=none;orthogonalLoop=1;jettySize=auto;html=1;fontSize=20;fontColor=#33FFFF;" edge="1" parent="1">
                    <mxGeometry width="80" relative="1" as="geometry">
                        <mxPoint x="470" y="264.65999999999997" as="sourcePoint"/>
                        <mxPoint x="550" y="264.65999999999997" as="targetPoint"/>
                        <Array as="points"/>
                    </mxGeometry>
                </mxCell>
                <mxCell id="52" value="" style="edgeStyle=none;orthogonalLoop=1;jettySize=auto;html=1;fontSize=20;fontColor=#33FFFF;" edge="1" parent="1">
                    <mxGeometry width="80" relative="1" as="geometry">
                        <mxPoint x="470" y="234.65999999999997" as="sourcePoint"/>
                        <mxPoint x="550" y="234.65999999999997" as="targetPoint"/>
                        <Array as="points">
                            <mxPoint x="500" y="235"/>
                        </Array>
                    </mxGeometry>
                </mxCell>
                <mxCell id="53" value="" style="edgeStyle=none;orthogonalLoop=1;jettySize=auto;html=1;fontSize=20;fontColor=#33FFFF;" edge="1" parent="1">
                    <mxGeometry width="80" relative="1" as="geometry">
                        <mxPoint x="470" y="354.66" as="sourcePoint"/>
                        <mxPoint x="550" y="354.66" as="targetPoint"/>
                        <Array as="points">
                            <mxPoint x="480" y="354.66"/>
                        </Array>
                    </mxGeometry>
                </mxCell>
                <mxCell id="55" value="" style="edgeStyle=none;orthogonalLoop=1;jettySize=auto;html=1;fontSize=20;fontColor=#33FFFF;" edge="1" parent="1">
                    <mxGeometry width="80" relative="1" as="geometry">
                        <mxPoint x="490" y="404.6600000000002" as="sourcePoint"/>
                        <mxPoint x="570" y="404.6600000000002" as="targetPoint"/>
                        <Array as="points">
                            <mxPoint x="500" y="404.66"/>
                        </Array>
                    </mxGeometry>
                </mxCell>
            </root>
        </mxGraphModel>
    </diagram>
</mxfile>